#!OML:ASF E:/inclinewalkrobotboard/Project1/Captureday1/Session1/subject1.ASF
:FULLY-SPECIFIED
:DEGREES
51
root 0 0 0 0.4606283351986784 -3.166162079834409 1.2556749368254507
lowerback 11.504652949716144 0.6330281226930303 -0.5307779931246367
upperback -2.778512959322479 0.7997717882508072 0.01706650134388954
thorax -9.45008741217977 0.3570184396748181 0.1975110944738392
lowerneck -9.800395725510034 0.26165722541017766 2.3754691622788946
upperneck 18.552777777126376 1.1309353934726034 -5.5041662102792435
head 7.447375870546525 0.2727559929403338 -2.089998100482891
rclavicle 2.126449172327325E-16 -7.381677557113575E-16
rhumerus 2.5818639395549816 3.4384238320358165 -59.56532902625482
rradius 56.196338689334524
rwrist 17.539811304360104
rhand -28.400442859755415 -27.545004569330292
rfingers 7.125019999999986
rthumb -1.767964963529522 -57.78388192154149
lclavicle -8.353387203006862E-16 -1.7509941198107865E-16
lhumerus 3.072342589328173 -9.599367878004479 59.03733484442223
lradius 55.772837895390325
lwrist -11.27153123055646
lhand -38.86079027270965 -35.98844210015853
lfingers 7.125019999999983
lthumb -11.801904088192353 -6.2960460090192925
rfemur -25.312007243006626 1.785550273684879 20.012417408298973
rtibia 47.75671402586074
rfoot -7.3134118682580045 -9.8601747241867
rtoes -1.434736702006736
lfemur -14.888793815581131 -0.3098840984260791 -17.174237729711432
ltibia 42.54586562376861
lfoot -6.0314895004853835 -4.761732901983185
ltoes -6.2373453991565615
52
root 0 0 0 0.4607845421865835 -3.164205011351624 1.2590178888772756
lowerback 11.504826413015525 0.6317710932864704 -0.5341292036685615
upperback -2.7787999395450194 0.7976571328944866 0.016858901421115124
thorax -9.45055279055712 0.3560694668148989 0.19957034595771161
lowerneck -9.799496158263779 0.2622009578095592 2.375747912546827
upperneck 18.55284376555751 1.1318153774414808 -5.504916167429832
head 7.447280759118648 0.2731577295686807 -2.090180028715523
rclavicle 2.1268374522890076E-16 -7.380816597969954E-16
rhumerus 2.5820677956379257 3.438515384990291 -59.565177978586135
rradius 56.196513406766755
rwrist 17.539941392761364
rhand -28.400505509358933 -27.545328965218292
rfingers 7.125019999999986
rthumb -1.7680317180103104 -57.78421551947925
lclavicle -8.353004463703426E-16 -1.7493639005384905E-16
lhumerus 3.0737662485394743 -9.599763056205479 59.0363557238379
lradius 55.773938574281814
lwrist -11.272205329240098
lhand -38.861268546376024 -35.990795116802666
lfingers 7.125019999999983
lthumb -11.80235330492664 -6.298475864616485
rfemur -25.35364563291472 1.7749508759762695 19.991881044338204
rtibia 47.79903867679074
rfoot -7.29844904778459 -9.866831875482866
rtoes -1.440123998377573
lfemur -14.894912336873244 -0.30355813654666164 -17.16835331321738
ltibia 42.59023765330468
lfoot -6.016334185021942 -4.776731840333603
ltoes -6.244407710678812
53
root 0 0 0 0.46097214642486994 -3.1621980129758183 1.2623447404397912
lowerback 11.504957322370798 0.6305020586037218 -0.537512948404632
upperback -2.7790784421138723 0.7955279784468523 0.016662101005871843
thorax -9.450983114093093 0.3551137169516965 0.2016444220720076
lowerneck -9.79863790957775 0.26275522119234607 2.3760067095905093
upperneck 18.552759129947617 1.132693855790567 -5.505612565245446
head 7.447134995276061 0.2735624327270396 -2.090336559901563
rclavicle 2.1273958521386518E-16 -7.380639263157861E-16
rhumerus 2.5822758774963788 3.4386360728735816 -59.56503429296356
rradius 56.19669865578548
rwrist 17.540054516949205
rhand -28.40056834025145 -27.54565603396291
rfingers 7.125019999999986
rthumb -1.768097456634643 -57.78457168642658
lclavicle -8.353107194993579E-16 -1.7480223400047982E-16
lhumerus 3.075850758180543 -9.600357229941588 59.03490841803534
lradius 55.775571957962796
lwrist -11.273172719128874
lhand -38.86196613732964 -35.9942275330129
lfingers 7.125019999999983
lthumb -11.803018603284995 -6.302060859356075
rfemur -25.39074358254399 1.7658048177985388 19.97367009257323
rtibia 47.83379324209433
rfoot -7.286853686273309 -9.87335371471336
rtoes -1.4462852112351297
lfemur -14.900290056410164 -0.29887511996146043 -17.16384105492589
ltibia 42.622637354012035
lfoot -6.005827367959888 -4.7872939341022205
ltoes -6.249511658210222
54
root 0 0 0 0.46088274381579186 -3.1655095234250723 1.2558076985243398
lowerback 11.504312321840406 0.6327209720743319 -0.5314068407500593
upperback -2.778437701081689 0.7993374963242038 0.017209941846430876
thorax -9.449793802394463 0.35682826315012417 0.19790555038518398
lowerneck -9.800831956581764 0.26180842269090965 2.37528561881884
upperneck 18.551600613207363 1.1308995885819995 -5.503661247760561
head 7.44700420067889 0.2727835158225913 -2.089781097381598
rclavicle 2.1283720818783024E-16 -7.367409852676148E-16
rhumerus 2.5815783834889636 3.4383838881297457 -59.565669166515974
rradius 56.19586088384725
rwrist 17.53935894264942
rhand -28.400314980323543 -27.54419353419269
rfingers 7.125019999999986
rthumb -1.7676962442634228 -57.78265164225621
lclavicle -8.336758749433207E-16 -1.733051947772082E-16
lhumerus 3.077532752816193 -9.600962623625888 59.03399976529953
lradius 55.77660894486976
lwrist -11.273977466665349
lhand -38.86246237907919 -35.996427665720745
lfingers 7.125019999999983
lthumb -11.803394320801324 -6.304960318697276
rfemur -25.272832677759293 1.7980898431396817 20.032678297408147
rtibia 47.6913021085594
rfoot -7.34242204434536 -9.859179826538298
rtoes -1.4412455648223412
lfemur -14.869284064448935 -0.3348555602236265 -17.19676766386923
ltibia 42.36977363673046
lfoot -6.093640166317457 -4.699740871028418
ltoes -6.20749277049006
